<svg xmlns="http://www.w3.org/2000/svg" width="18.712" height="18.712" viewBox="0 0 18.712 18.712">
  <g id="bx-copy-alt" transform="translate(-15.75 -15.75)">
    <path id="Path_50" data-name="Path 50" d="M32.391,16H23.285a1.823,1.823,0,0,0-1.821,1.821v3.642H17.821A1.823,1.823,0,0,0,16,23.285v9.106a1.823,1.823,0,0,0,1.821,1.821h9.106a1.823,1.823,0,0,0,1.821-1.821V28.749h3.642a1.823,1.823,0,0,0,1.821-1.821V17.821A1.823,1.823,0,0,0,32.391,16ZM17.821,32.391V23.285h9.106l0,9.106Zm14.57-5.464H28.749V23.285a1.823,1.823,0,0,0-1.821-1.821H23.285V17.821h9.106Z" fill="#071329" stroke="#f1f1f1" stroke-width="0.5"/>
    <path id="Path_51" data-name="Path 51" d="M48,96h5.464v1.821H48Zm0,3.642h5.464v1.821H48Z" transform="translate(-28.358 -70.894)" fill="#071329" stroke="#f1f1f1" stroke-width="0.5"/>
  </g>
</svg>
