<svg xmlns="http://www.w3.org/2000/svg" width="14.9" height="18.5" viewBox="0 0 14.9 18.5">
  <g id="bx-coin-stack" transform="translate(-31.75 -15.75)">
    <path id="Path_53" data-name="Path 53" d="M39.2,34c3.578,0,7.2-1.237,7.2-3.6V19.6c0-2.363-3.622-3.6-7.2-3.6S32,17.237,32,19.6V30.4C32,32.763,35.622,34,39.2,34Zm0-1.8c-3.35,0-5.4-1.166-5.4-1.8V29.259A11.862,11.862,0,0,0,39.2,30.4a11.862,11.862,0,0,0,5.4-1.141V30.4C44.6,31.035,42.55,32.2,39.2,32.2Zm0-14.4c3.35,0,5.4,1.166,5.4,1.8s-2.05,1.8-5.4,1.8-5.4-1.166-5.4-1.8S35.85,17.8,39.2,17.8Zm-5.4,4.259A11.862,11.862,0,0,0,39.2,23.2a11.862,11.862,0,0,0,5.4-1.141V23.2c0,.634-2.05,1.8-5.4,1.8s-5.4-1.166-5.4-1.8Zm0,3.6A11.862,11.862,0,0,0,39.2,26.8a11.862,11.862,0,0,0,5.4-1.141V26.8c0,.635-2.05,1.8-5.4,1.8s-5.4-1.165-5.4-1.8Z" fill="#071329" stroke="#f1f1f1" stroke-width="0.5"/>
  </g>
</svg>
