<svg xmlns="http://www.w3.org/2000/svg" width="18.712" height="18.692" viewBox="0 0 18.712 18.692">
  <g id="bx-message-detail" transform="translate(-15.75 -15.75)">
    <path id="Path_48" data-name="Path 48" d="M32.391,16H17.821A1.823,1.823,0,0,0,16,17.821V28.749a1.823,1.823,0,0,0,1.821,1.821h2.732V34l5.716-3.43h6.122a1.823,1.823,0,0,0,1.821-1.821V17.821A1.823,1.823,0,0,0,32.391,16Zm0,12.749H25.764l-3.39,2.033V28.749H17.821V17.821h14.57Z" fill="#071329" stroke="#f1f1f1" stroke-width="0.5"/>
    <path id="Path_49" data-name="Path 49" d="M56,56h9.106v1.821H56Zm0,3.642h6.374v1.821H56Z" transform="translate(-35.447 -35.447)" fill="#071329" stroke="#f1f1f1" stroke-width="0.5"/>
  </g>
</svg>
