<svg xmlns="http://www.w3.org/2000/svg" width="18" height="18" viewBox="0 0 18 18">
  <g id="dashboard" transform="translate(-12 -12)">
    <path id="Path_40" data-name="Path 40" d="M144,126h1.5v6.411H144Z" transform="translate(-121.673 -105.411)" fill="#6a06e4"/>
    <path id="Path_44" data-name="Path 44" d="M144,126h1.5v3.75H144Z" transform="translate(-125.827 -102.75)" fill="#6a06e4"/>
    <path id="Path_41" data-name="Path 41" d="M120,96h1.5v5.336H120Z" transform="translate(-99.75 -74.336)" fill="#6a06e4"/>
    <path id="Path_43" data-name="Path 43" d="M28.714,12H13.286A1.287,1.287,0,0,0,12,13.286V28.714A1.287,1.287,0,0,0,13.286,30H28.714A1.288,1.288,0,0,0,30,28.714V13.286A1.287,1.287,0,0,0,28.714,12Zm0,1.286v4.5H13.286v-4.5ZM13.286,28.714V19.071H28.714v9.643Z" transform="translate(0 0)" fill="#c18fff"/>
  </g>
</svg>
