<svg xmlns="http://www.w3.org/2000/svg" width="19.473" height="20" viewBox="0 0 19.473 20">
  <g id="Group_58" data-name="Group 58" transform="translate(-137.914 -286.749)">
    <g id="settings" transform="translate(137.914 286.749)">
      <path id="Path_38" data-name="Path 38" d="M32.089,22.782v-1.1l1.375-1.2a1.433,1.433,0,0,0,.272-1.827l-1.691-2.865a1.446,1.446,0,0,0-1.7-.645l-1.741.587a8.13,8.13,0,0,0-.938-.537L27.3,13.391a1.433,1.433,0,0,0-1.433-1.153H22.519a1.433,1.433,0,0,0-1.433,1.153L20.721,15.2a8.223,8.223,0,0,0-.946.537l-1.7-.616a1.577,1.577,0,0,0-1.7.673l-1.69,2.865a1.433,1.433,0,0,0,.294,1.8l1.354,1.239v1.1l-1.354,1.2a1.433,1.433,0,0,0-.294,1.827l1.69,2.865a1.446,1.446,0,0,0,1.7.645l1.741-.587a8.131,8.131,0,0,0,.938.537l.365,1.805a1.433,1.433,0,0,0,1.433,1.153h3.381a1.433,1.433,0,0,0,1.433-1.153l.365-1.805a8.224,8.224,0,0,0,.946-.537l1.733.587a1.446,1.446,0,0,0,1.7-.645l1.633-2.865a1.433,1.433,0,0,0-.294-1.8Zm-1.282,5.186-2.457-.831a6.347,6.347,0,0,1-1.941,1.125L25.9,30.834H22.519l-.509-2.543a6.7,6.7,0,0,1-1.934-1.125l-2.464.8L15.921,25.1l1.948-1.719a6.375,6.375,0,0,1,0-2.242l-1.948-1.769,1.69-2.865,2.457.831a6.346,6.346,0,0,1,1.941-1.125l.509-2.572H25.9l.509,2.543a6.7,6.7,0,0,1,1.934,1.125l2.464-.8,1.69,2.865-1.948,1.719a6.375,6.375,0,0,1,0,2.242L32.5,25.1Z" transform="translate(-14.476 -12.238)" fill="#071329"/>
      <path id="Path_39" data-name="Path 39" d="M64,68.008a4,4,0,1,1,4-4,3.964,3.964,0,0,1-4,4Zm0-6.673a2.609,2.609,0,1,0,1.906.763A2.609,2.609,0,0,0,64,61.335Z" transform="translate(-54.272 -54.004)" fill="#071329"/>
    </g>
  </g>
</svg>
