<svg xmlns="http://www.w3.org/2000/svg" width="22.471" height="14.845" viewBox="0 0 22.471 14.845">
  <g id="users-more_curved" transform="translate(-7.25 -39.25)">
    <path id="Path_52" data-name="Path 52" d="M25.158,48.579a3.912,3.912,0,0,1,3.813,3.336,1.43,1.43,0,0,1-1.43,1.43h-.477m-3.813-7.626a2.86,2.86,0,0,0,0-5.719M11.813,48.579A3.912,3.912,0,0,0,8,51.915a1.43,1.43,0,0,0,1.43,1.43h.477m3.813-7.626a2.86,2.86,0,1,1,0-5.719m9.056,13.345H14.2a1.43,1.43,0,0,1-1.43-1.43c0-2.383,2.86-3.336,5.719-3.336s5.719.953,5.719,3.336A1.43,1.43,0,0,1,22.775,53.345ZM21.345,42.86A2.86,2.86,0,1,1,18.486,40,2.86,2.86,0,0,1,21.345,42.86Z" fill="none" stroke="#071329" stroke-linecap="round" stroke-linejoin="round" stroke-width="1.5"/>
  </g>
</svg>
